<?xml version="1.0" encoding="UTF-8"?>
<svg xmlns="http://www.w3.org/2000/svg" xmlns:xlink="http://www.w3.org/1999/xlink" width="1080px" height="1080px" viewBox="0 0 1080 1080" version="1.1">
<defs>
<filter id="alpha" filterUnits="objectBoundingBox" x="0%" y="0%" width="100%" height="100%">
  <feColorMatrix type="matrix" in="SourceGraphic" values="0 0 0 0 1 0 0 0 0 1 0 0 0 0 1 0 0 0 1 0"/>
</filter>
<mask id="mask0">
  <g filter="url(#alpha)">
<rect x="0" y="0" width="1080" height="1080" style="fill:rgb(0%,0%,0%);fill-opacity:0.462745;stroke:none;"/>
  </g>
</mask>
<clipPath id="clip1">
  <rect x="0" y="0" width="1080" height="1080"/>
</clipPath>
<g id="surface5" clip-path="url(#clip1)">
<path style=" stroke:none;fill-rule:evenodd;fill:rgb(43.137255%,17.254902%,52.941176%);fill-opacity:1;" d="M 708.75 146.25 C 655.058594 164.207031 602.5625 186.707031 551.25 213.75 C 531.320312 232.3125 523.824219 254.8125 528.75 281.25 C 508.703125 264.121094 493.703125 241.621094 483.75 213.75 C 553.15625 152.910156 628.160156 130.410156 708.75 146.25 Z M 708.75 146.25 "/>
</g>
<mask id="mask1">
  <g filter="url(#alpha)">
<rect x="0" y="0" width="1080" height="1080" style="fill:rgb(0%,0%,0%);fill-opacity:0.482353;stroke:none;"/>
  </g>
</mask>
<clipPath id="clip2">
  <rect x="0" y="0" width="1080" height="1080"/>
</clipPath>
<g id="surface8" clip-path="url(#clip2)">
<path style=" stroke:none;fill-rule:evenodd;fill:rgb(44.705882%,15.686275%,52.941176%);fill-opacity:1;" d="M 303.75 326.25 C 243.75 356.25 183.75 386.25 123.75 416.25 C 113.890625 417.722656 106.390625 413.972656 101.25 405 C 159.722656 337.617188 227.222656 311.367188 303.75 326.25 Z M 303.75 326.25 "/>
</g>
<mask id="mask2">
  <g filter="url(#alpha)">
<rect x="0" y="0" width="1080" height="1080" style="fill:rgb(0%,0%,0%);fill-opacity:0.960784;stroke:none;"/>
  </g>
</mask>
<clipPath id="clip3">
  <rect x="0" y="0" width="1080" height="1080"/>
</clipPath>
<g id="surface11" clip-path="url(#clip3)">
<path style=" stroke:none;fill-rule:evenodd;fill:rgb(31.372549%,28.235294%,49.019608%);fill-opacity:1;" d="M 123.75 438.75 C 162.21875 482.851562 169.71875 531.601562 146.25 585 C 125.171875 600.5625 110.171875 596.8125 101.25 573.75 C 110.644531 557.515625 125.644531 546.265625 146.25 540 C 126.445312 509.488281 118.945312 475.738281 123.75 438.75 Z M 123.75 438.75 "/>
</g>
<mask id="mask3">
  <g filter="url(#alpha)">
<rect x="0" y="0" width="1080" height="1080" style="fill:rgb(0%,0%,0%);fill-opacity:0.866667;stroke:none;"/>
  </g>
</mask>
<clipPath id="clip4">
  <rect x="0" y="0" width="1080" height="1080"/>
</clipPath>
<g id="surface14" clip-path="url(#clip4)">
<path style=" stroke:none;fill-rule:evenodd;fill:rgb(50.196078%,13.333333%,56.862745%);fill-opacity:1;" d="M 933.75 843.75 C 805.285156 930.484375 670.285156 1005.480469 528.75 1068.75 C 521.25 1068.75 513.75 1068.75 506.25 1068.75 C 506.25 1061.25 506.25 1053.75 506.25 1046.25 C 639.015625 961.144531 781.515625 893.644531 933.75 843.75 Z M 933.75 843.75 "/>
</g>
</defs>
<g id="surface1">
<path style=" stroke:none;fill-rule:evenodd;fill:rgb(9.803922%,82.745098%,84.705882%);fill-opacity:1;" d="M 798.75 146.25 C 801.765625 186.558594 794.265625 224.058594 776.25 258.75 C 736.867188 232.664062 714.367188 195.164062 708.75 146.25 C 628.160156 130.410156 553.15625 152.910156 483.75 213.75 C 493.703125 241.621094 508.703125 264.121094 528.75 281.25 C 617.074219 450.421875 699.578125 622.921875 776.25 798.75 C 806.203125 813.738281 839.953125 813.738281 877.5 798.75 C 908.449219 802.894531 927.199219 817.894531 933.75 843.75 C 781.515625 893.644531 639.015625 961.144531 506.25 1046.25 C 482.097656 1029.363281 478.347656 1006.863281 495 978.75 C 519.15625 953.585938 545.40625 931.085938 573.75 911.25 C 483.433594 715.660156 393.433594 520.660156 303.75 326.25 C 227.222656 311.367188 159.722656 337.617188 101.25 405 C 106.390625 413.972656 113.890625 417.722656 123.75 416.25 C 123.75 423.75 123.75 431.25 123.75 438.75 C 118.945312 475.738281 126.445312 509.488281 146.25 540 C 125.644531 546.265625 110.644531 557.515625 101.25 573.75 C 63.75 513.75 26.25 453.75 -11.25 393.75 C -11.25 378.75 -11.25 363.75 -11.25 348.75 C 230.5625 233.488281 474.3125 120.988281 720 11.25 C 763.53125 45.761719 789.777344 90.761719 798.75 146.25 Z M 798.75 146.25 "/>
<use xlink:href="#surface5" mask="url(#mask0)"/>
<path style=" stroke:none;fill-rule:evenodd;fill:rgb(32.156863%,33.333333%,51.372549%);fill-opacity:1;" d="M 798.75 146.25 C 841.621094 181.101562 849.121094 222.351562 821.25 270 C 800.171875 285.5625 785.171875 281.8125 776.25 258.75 C 794.265625 224.058594 801.765625 186.558594 798.75 146.25 Z M 798.75 146.25 "/>
<use xlink:href="#surface8" mask="url(#mask1)"/>
<use xlink:href="#surface11" mask="url(#mask2)"/>
<use xlink:href="#surface14" mask="url(#mask3)"/>
</g>
</svg>
